<?xml version="1.0" encoding="utf-8"?>
<!-- Generator: Adobe Illustrator 16.0.0, SVG Export Plug-In . SVG Version: 6.00 Build 0)  -->
<!DOCTYPE svg PUBLIC "-//W3C//DTD SVG 1.1//EN" "http://www.w3.org/Graphics/SVG/1.1/DTD/svg11.dtd">
<svg version="1.1" id="USD" xmlns="http://www.w3.org/2000/svg" xmlns:xlink="http://www.w3.org/1999/xlink" x="0px" y="0px"
	 width="100px" height="50px" viewBox="0 0 100 50" enable-background="new 0 0 100 50" xml:space="preserve">
<g>
	<rect y="46.153" fill="#CB001C" width="100" height="3.847"/>
	<rect y="42.263" fill="#FFFFFF" width="100" height="3.843"/>
	<rect y="38.463" fill="#CB001C" width="100" height="3.844"/>
	<rect y="34.58" fill="#FFFFFF" width="100" height="3.844"/>
	<rect y="30.769" fill="#CB001C" width="100" height="3.847"/>
	<rect y="26.898" fill="#FFFFFF" width="100" height="3.84"/>
	<rect y="23.078" fill="#CB001C" width="100" height="3.847"/>
	<rect y="19.214" fill="#FFFFFF" width="100" height="3.839"/>
	<rect y="15.384" fill="#CB001C" width="100" height="3.847"/>
	<rect y="11.529" fill="#FFFFFF" width="100" height="3.842"/>
	<rect y="7.691" fill="#CB001C" width="100" height="3.847"/>
	<rect y="3.847" fill="#FFFFFF" width="100" height="3.84"/>
	<rect fill="#CB001C" width="100" height="3.847"/>
	<rect fill="#2A3560" width="39.134" height="26.925"/>
	<polygon fill="#FFFFFF" points="3.529,2.966 3.86,3.986 4.929,3.986 4.064,4.614 4.395,5.631 3.529,5 2.664,5.631 2.994,4.614 
		2.129,3.986 3.198,3.986 	"/>
	<polygon fill="#FFFFFF" points="3.529,7.46 3.86,8.478 4.929,8.478 4.064,9.105 4.395,10.125 3.529,9.495 2.664,10.125 
		2.994,9.105 2.129,8.478 3.198,8.478 	"/>
	<polygon fill="#FFFFFF" points="3.529,11.955 3.86,12.972 4.929,12.972 4.064,13.6 4.395,14.62 3.529,13.989 2.664,14.62 
		2.994,13.6 2.129,12.972 3.198,12.972 	"/>
	<polygon fill="#FFFFFF" points="3.529,16.45 3.86,17.467 4.929,17.467 4.064,18.098 4.395,19.112 3.529,18.484 2.664,19.112 
		2.994,18.098 2.129,17.467 3.198,17.467 	"/>
	<polygon fill="#FFFFFF" points="3.529,20.944 3.86,21.961 4.929,21.961 4.064,22.589 4.395,23.606 3.529,22.979 2.664,23.606 
		2.994,22.589 2.129,21.961 3.198,21.961 	"/>
	<polygon fill="#FFFFFF" points="6.659,5.335 6.99,6.353 8.06,6.353 7.193,6.98 7.524,7.998 6.659,7.37 5.793,7.998 6.124,6.98 
		5.259,6.353 6.329,6.353 	"/>
	<polygon fill="#FFFFFF" points="6.659,9.83 6.99,10.844 8.06,10.844 7.193,11.475 7.524,12.492 6.659,11.864 5.793,12.492 
		6.124,11.475 5.259,10.844 6.329,10.844 	"/>
	<polygon fill="#FFFFFF" points="6.659,14.322 6.99,15.339 8.06,15.339 7.193,15.97 7.524,16.987 6.659,16.359 5.793,16.987 
		6.124,15.97 5.259,15.339 6.329,15.339 	"/>
	<polygon fill="#FFFFFF" points="6.659,18.816 6.99,19.833 8.06,19.833 7.193,20.464 7.524,21.479 6.659,20.851 5.793,21.479 
		6.124,20.464 5.259,19.833 6.329,19.833 	"/>
	<polygon fill="#FFFFFF" points="9.83,2.966 10.16,3.986 11.229,3.986 10.363,4.614 10.694,5.631 9.83,5 8.963,5.631 9.294,4.614 
		8.429,3.986 9.499,3.986 	"/>
	<polygon fill="#FFFFFF" points="9.83,7.46 10.16,8.478 11.229,8.478 10.363,9.105 10.694,10.125 9.83,9.495 8.963,10.125 
		9.294,9.105 8.429,8.478 9.499,8.478 	"/>
	<polygon fill="#FFFFFF" points="9.83,11.955 10.16,12.972 11.229,12.972 10.363,13.6 10.694,14.62 9.83,13.989 8.963,14.62 
		9.294,13.6 8.429,12.972 9.499,12.972 	"/>
	<polygon fill="#FFFFFF" points="9.83,16.45 10.16,17.467 11.229,17.467 10.363,18.098 10.694,19.112 9.83,18.484 8.963,19.112 
		9.294,18.098 8.429,17.467 9.499,17.467 	"/>
	<polygon fill="#FFFFFF" points="9.83,20.944 10.16,21.961 11.229,21.961 10.363,22.589 10.694,23.606 9.83,22.979 8.963,23.606 
		9.294,22.589 8.429,21.961 9.499,21.961 	"/>
	<polygon fill="#FFFFFF" points="12.959,5.335 13.29,6.353 14.359,6.353 13.494,6.98 13.824,7.998 12.959,7.37 12.093,7.998 
		12.423,6.98 11.559,6.353 12.628,6.353 	"/>
	<polygon fill="#FFFFFF" points="12.959,9.83 13.29,10.844 14.359,10.844 13.494,11.475 13.824,12.492 12.959,11.864 12.093,12.492 
		12.423,11.475 11.559,10.844 12.628,10.844 	"/>
	<polygon fill="#FFFFFF" points="12.959,14.322 13.29,15.339 14.359,15.339 13.494,15.97 13.824,16.987 12.959,16.359 
		12.093,16.987 12.423,15.97 11.559,15.339 12.628,15.339 	"/>
	<polygon fill="#FFFFFF" points="12.959,18.816 13.29,19.833 14.359,19.833 13.494,20.464 13.824,21.479 12.959,20.851 
		12.093,21.479 12.423,20.464 11.559,19.833 12.628,19.833 	"/>
	<polygon fill="#FFFFFF" points="16.129,2.966 16.46,3.986 17.529,3.986 16.664,4.614 16.994,5.631 16.129,5 15.263,5.631 
		15.594,4.614 14.729,3.986 15.798,3.986 	"/>
	<polygon fill="#FFFFFF" points="16.129,7.46 16.46,8.478 17.529,8.478 16.664,9.105 16.994,10.125 16.129,9.495 15.263,10.125 
		15.594,9.105 14.729,8.478 15.798,8.478 	"/>
	<polygon fill="#FFFFFF" points="16.129,11.955 16.46,12.972 17.529,12.972 16.664,13.6 16.994,14.62 16.129,13.989 15.263,14.62 
		15.594,13.6 14.729,12.972 15.798,12.972 	"/>
	<polygon fill="#FFFFFF" points="16.129,16.45 16.46,17.467 17.529,17.467 16.664,18.098 16.994,19.112 16.129,18.484 
		15.263,19.112 15.594,18.098 14.729,17.467 15.798,17.467 	"/>
	<polygon fill="#FFFFFF" points="16.129,20.944 16.46,21.961 17.529,21.961 16.664,22.589 16.994,23.606 16.129,22.979 
		15.263,23.606 15.594,22.589 14.729,21.961 15.798,21.961 	"/>
	<polygon fill="#FFFFFF" points="19.259,5.335 19.59,6.353 20.659,6.353 19.793,6.98 20.124,7.998 19.259,7.37 18.394,7.998 
		18.723,6.98 17.859,6.353 18.928,6.353 	"/>
	<polygon fill="#FFFFFF" points="19.259,9.83 19.59,10.844 20.659,10.844 19.793,11.475 20.124,12.492 19.259,11.864 18.394,12.492 
		18.723,11.475 17.859,10.844 18.928,10.844 	"/>
	<polygon fill="#FFFFFF" points="19.259,14.322 19.59,15.339 20.659,15.339 19.793,15.97 20.124,16.987 19.259,16.359 
		18.394,16.987 18.723,15.97 17.859,15.339 18.928,15.339 	"/>
	<polygon fill="#FFFFFF" points="19.259,18.816 19.59,19.833 20.659,19.833 19.793,20.464 20.124,21.479 19.259,20.851 
		18.394,21.479 18.723,20.464 17.859,19.833 18.928,19.833 	"/>
	<polygon fill="#FFFFFF" points="22.429,2.966 22.76,3.986 23.83,3.986 22.964,4.614 23.294,5.631 22.429,5 21.563,5.631 
		21.895,4.614 21.029,3.986 22.099,3.986 	"/>
	<polygon fill="#FFFFFF" points="22.429,7.46 22.76,8.478 23.83,8.478 22.964,9.105 23.294,10.125 22.429,9.495 21.563,10.125 
		21.895,9.105 21.029,8.478 22.099,8.478 	"/>
	<polygon fill="#FFFFFF" points="22.429,11.955 22.76,12.972 23.83,12.972 22.964,13.6 23.294,14.62 22.429,13.989 21.563,14.62 
		21.895,13.6 21.029,12.972 22.099,12.972 	"/>
	<polygon fill="#FFFFFF" points="22.429,16.45 22.76,17.467 23.83,17.467 22.964,18.098 23.294,19.112 22.429,18.484 21.563,19.112 
		21.895,18.098 21.029,17.467 22.099,17.467 	"/>
	<polygon fill="#FFFFFF" points="22.429,20.944 22.76,21.961 23.83,21.961 22.964,22.589 23.294,23.606 22.429,22.979 
		21.563,23.606 21.895,22.589 21.029,21.961 22.099,21.961 	"/>
	<polygon fill="#FFFFFF" points="25.559,5.335 25.889,6.353 26.959,6.353 26.094,6.98 26.425,7.998 25.559,7.37 24.692,7.998 
		25.024,6.98 24.158,6.353 25.228,6.353 	"/>
	<polygon fill="#FFFFFF" points="25.559,9.83 25.889,10.844 26.959,10.844 26.094,11.475 26.425,12.492 25.559,11.864 
		24.692,12.492 25.024,11.475 24.158,10.844 25.228,10.844 	"/>
	<polygon fill="#FFFFFF" points="25.559,14.322 25.889,15.339 26.959,15.339 26.094,15.97 26.425,16.987 25.559,16.359 
		24.692,16.987 25.024,15.97 24.158,15.339 25.228,15.339 	"/>
	<polygon fill="#FFFFFF" points="25.559,18.816 25.889,19.833 26.959,19.833 26.094,20.464 26.425,21.479 25.559,20.851 
		24.692,21.479 25.024,20.464 24.158,19.833 25.228,19.833 	"/>
	<polygon fill="#FFFFFF" points="28.729,2.966 29.06,3.986 30.129,3.986 29.265,4.614 29.594,5.631 28.729,5 27.864,5.631 
		28.193,4.614 27.328,3.986 28.398,3.986 	"/>
	<polygon fill="#FFFFFF" points="28.729,7.46 29.06,8.478 30.129,8.478 29.265,9.105 29.594,10.125 28.729,9.495 27.864,10.125 
		28.193,9.105 27.328,8.478 28.398,8.478 	"/>
	<polygon fill="#FFFFFF" points="28.729,11.955 29.06,12.972 30.129,12.972 29.265,13.6 29.594,14.62 28.729,13.989 27.864,14.62 
		28.193,13.6 27.328,12.972 28.398,12.972 	"/>
	<polygon fill="#FFFFFF" points="28.729,16.45 29.06,17.467 30.129,17.467 29.265,18.098 29.594,19.112 28.729,18.484 
		27.864,19.112 28.193,18.098 27.328,17.467 28.398,17.467 	"/>
	<polygon fill="#FFFFFF" points="28.729,20.944 29.06,21.961 30.129,21.961 29.265,22.589 29.594,23.606 28.729,22.979 
		27.864,23.606 28.193,22.589 27.328,21.961 28.398,21.961 	"/>
	<polygon fill="#FFFFFF" points="31.858,5.335 32.189,6.353 33.259,6.353 32.394,6.98 32.724,7.998 31.858,7.37 30.993,7.998 
		31.324,6.98 30.458,6.353 31.528,6.353 	"/>
	<polygon fill="#FFFFFF" points="31.858,9.83 32.189,10.844 33.259,10.844 32.394,11.475 32.724,12.492 31.858,11.864 
		30.993,12.492 31.324,11.475 30.458,10.844 31.528,10.844 	"/>
	<polygon fill="#FFFFFF" points="31.858,14.322 32.189,15.339 33.259,15.339 32.394,15.97 32.724,16.987 31.858,16.359 
		30.993,16.987 31.324,15.97 30.458,15.339 31.528,15.339 	"/>
	<polygon fill="#FFFFFF" points="31.858,18.816 32.189,19.833 33.259,19.833 32.394,20.464 32.724,21.479 31.858,20.851 
		30.993,21.479 31.324,20.464 30.458,19.833 31.528,19.833 	"/>
	<polygon fill="#FFFFFF" points="35.028,2.966 35.359,3.986 36.429,3.986 35.564,4.614 35.895,5.631 35.028,5 34.163,5.631 
		34.494,4.614 33.628,3.986 34.698,3.986 	"/>
	<polygon fill="#FFFFFF" points="35.028,7.46 35.359,8.478 36.429,8.478 35.564,9.105 35.895,10.125 35.028,9.495 34.163,10.125 
		34.494,9.105 33.628,8.478 34.698,8.478 	"/>
	<polygon fill="#FFFFFF" points="35.028,11.955 35.359,12.972 36.429,12.972 35.564,13.6 35.895,14.62 35.028,13.989 34.163,14.62 
		34.494,13.6 33.628,12.972 34.698,12.972 	"/>
	<polygon fill="#FFFFFF" points="35.028,16.45 35.359,17.467 36.429,17.467 35.564,18.098 35.895,19.112 35.028,18.484 
		34.163,19.112 34.494,18.098 33.628,17.467 34.698,17.467 	"/>
	<polygon fill="#FFFFFF" points="35.028,20.944 35.359,21.961 36.429,21.961 35.564,22.589 35.895,23.606 35.028,22.979 
		34.163,23.606 34.494,22.589 33.628,21.961 34.698,21.961 	"/>
</g>
</svg>
